<svg xmlns="http://www.w3.org/2000/svg" width="600" height="400" viewBox="0 0 600 400" role="img" aria-labelledby="title desc">
  <title id="title">Mapa simulado</title>
  <desc id="desc">Imagen simulada de mapa para ubicacion no disponible.</desc>
  <defs>
    <linearGradient id="bg" x1="0" y1="0" x2="1" y2="1">
      <stop offset="0%" stop-color="#dfe7ec"/>
      <stop offset="100%" stop-color="#cfd8df"/>
    </linearGradient>
  </defs>
  <rect width="600" height="400" fill="url(#bg)"/>
  <g stroke="#b4c0c9" stroke-width="2" opacity="0.9">
    <path d="M0 80 H600"/>
    <path d="M0 160 H600"/>
    <path d="M0 240 H600"/>
    <path d="M0 320 H600"/>
    <path d="M100 0 V400"/>
    <path d="M220 0 V400"/>
    <path d="M340 0 V400"/>
    <path d="M460 0 V400"/>
  </g>
  <g stroke="#9fb0bc" stroke-width="8" fill="none" stroke-linecap="round" opacity="0.75">
    <path d="M60 300 C140 220, 220 270, 320 190 S500 140, 560 90"/>
    <path d="M90 90 C170 130, 250 90, 360 130 S500 220, 560 260"/>
  </g>
  <g transform="translate(300 185)">
    <path d="M0 -42 C-20 -42 -36 -26 -36 -6 C-36 18 -14 42 0 58 C14 42 36 18 36 -6 C36 -26 20 -42 0 -42 Z" fill="#e67e8b"/>
    <circle cx="0" cy="-6" r="12" fill="#ffffff"/>
  </g>
  <rect x="160" y="300" width="280" height="58" rx="10" fill="#ffffff" opacity="0.85"/>
  <text x="300" y="337" text-anchor="middle" font-family="Arial, Helvetica, sans-serif" font-size="30" fill="#6f7f89">Mapa simulado</text>
</svg>
